<svg xmlns="http://www.w3.org/2000/svg" viewBox="0 0 2014 954" font-family="-apple-system, 'SF Pro Text', 'Helvetica Neue', Arial, sans-serif">
  <!--
    Chemistry Building (bldg 187) - FLOOR 2
    Traced from the posted "Emergency Evacuation Plan" photo. Coordinates use the
    photo's own pixel positions, so any shape can be checked against the photo.
    One wall weight for outside walls, one for inside walls; nothing in between.
  -->
  <style>
    .floor { fill: #ffffff; stroke: #3a3d42; stroke-width: 6; stroke-linejoin: round; }
    .room  { fill: #eef1f4; stroke: #8f959c; stroke-width: 2; }
    .ours  { fill: #f5e3ea; stroke: #8f959c; stroke-width: 2; }
    .core  { fill: #dfe3e8; stroke: #8f959c; stroke-width: 2; }
    .void  { fill: #f7f7f8; stroke: #b5bac0; stroke-width: 2; stroke-dasharray: 10 8; }
    .dim   { fill: #8a8f96; text-anchor: middle; dominant-baseline: middle; }
    .stair { stroke: #8f959c; stroke-width: 2; }
    .hall  { fill: #d7dbe0; stroke: none; }
    .hall-lbl { fill: #6b7280; font-size: 18px; text-anchor: middle; dominant-baseline: middle; }
    .authwall { stroke: #7c3aed; stroke-width: 6; stroke-dasharray: 10 8; }
    .door  { stroke: #ffffff; stroke-width: 10; }
    .lbl   { fill: #2b2e33; font-size: 24px; text-anchor: middle; dominant-baseline: middle; }
    .lblS  { fill: #2b2e33; font-size: 19px; text-anchor: middle; dominant-baseline: middle; }
    .name  { fill: #1d1f23; font-size: 30px; font-weight: 700; text-anchor: middle; dominant-baseline: middle; }
    .exit  { fill: #1a7f37; font-size: 20px; font-weight: 700; text-anchor: middle; dominant-baseline: middle; }
    .compass-letter { font-size: 22px; font-weight: 600; fill: #8a8690; text-anchor: middle; }
    .compass-north  { fill: #8C0B42; }
    .floor-edge { fill:none; stroke:#3a3d42; stroke-width:6; stroke-linejoin:round; }
  </style>

  <!-- OUTSIDE WALLS -->
  <polygon class="floor" points="270,75 1380,75 1380,250 1955,250 1955,700 1465,700 1465,815 1380,815 1380,885 270,885 270,845 165,845 165,730 105,730 105,405 270,405"/>

  <!-- HALLWAYS -->
  <rect class="hall" x="105" y="425" width="145" height="95"/>
  <rect class="hall" x="165" y="520" width="60" height="55"/>
  <rect class="hall" x="250" y="440" width="1130" height="80"/>
  <rect class="hall" x="1380" y="425" width="575" height="105"/>
  <rect class="hall" x="1480" y="360" width="120" height="65"/>
  <rect class="hall" x="385" y="520" width="90" height="40"/>
  <rect class="hall" x="570" y="520" width="105" height="40"/>
  <rect class="hall" x="765" y="520" width="50" height="45"/>
  <rect class="hall" x="975" y="520" width="105" height="40"/>
  <rect class="hall" x="1175" y="520" width="80" height="40"/>
  <rect class="hall" x="1265" y="520" width="115" height="50"/>
  <text class="hall-lbl" x="1028" y="483">Hallway</text>
  <text class="hall-lbl" x="1548" y="478">Hallway</text>
  <text class="hall-lbl" x="508" y="483">Hallway</text>

  <!-- ROOMS -->
  <rect class="room" x="480" y="105" width="195" height="335"/><text class="lbl" x="578" y="273">W276</text>
  <rect class="room" x="675" y="105" width="200" height="335"/><text class="lbl" x="775" y="273">W278</text>
  <rect class="room" x="875" y="105" width="195" height="335"/><text class="lbl" x="973" y="273">W280</text>
  <rect class="room" x="1070" y="105" width="200" height="335"/><text class="lbl" x="1170" y="273">W282</text>
  <rect class="room" x="1270" y="105" width="110" height="335"/><text class="lbl" x="1325" y="273">W284</text>
  <rect class="room" x="1380" y="260" width="100" height="165"/><text class="lbl" x="1430" y="343">W287</text>
  <rect class="room" x="1480" y="260" width="150" height="100"/><text class="lbl" x="1555" y="310">W288</text>
  <polygon class="room" points="1630,260 1725,260 1725,425 1600,425 1600,360 1630,360"/><text class="lbl" x="1671" y="348">W288A</text>
  <rect class="room" x="1725" y="260" width="95" height="165"/><text class="lbl" x="1773" y="343">W289</text>
  <rect class="room" x="1820" y="260" width="135" height="165"/><text class="lbl" x="1888" y="343">W290</text>
  <rect class="room" x="1465" y="530" width="100" height="165"/><text class="lbl" x="1515" y="613">W296</text>
  <rect class="room" x="1565" y="530" width="100" height="165"/><text class="lbl" x="1615" y="613">W295</text>
  <rect class="room" x="1665" y="530" width="100" height="165"/><text class="lbl" x="1715" y="613">W294</text>
  <rect class="room" x="1765" y="530" width="100" height="165"/><text class="lbl" x="1815" y="613">W293</text>
  <rect class="room" x="1865" y="530" width="90" height="165"/><text class="lbl" x="1910" y="613">W292</text>
  <polygon class="room" points="290,520 385,520 385,560 355,560 355,870 295,870 295,840 165,840 165,730 290,730"/><text class="lbl" x="325" y="785">W275</text>
  <polygon class="room" points="105,520 165,520 165,575 180,575 180,730 105,730"/><text class="lbl" x="141" y="629">R275A</text>
  <polygon class="room" points="200,575 225,575 225,520 288,520 288,730 200,730"/><text class="lbl" x="247" y="631">R275B</text>
  <polygon class="room" points="355,560 475,560 475,520 570,520 570,855 355,855"/><text class="lbl" x="466" y="698">W277</text>
  <polygon class="room" points="570,560 675,560 675,520 765,520 765,855 570,855"/><text class="lbl" x="671" y="698">W279</text>
  <polygon class="room" points="765,565 815,565 815,640 870,640 870,855 765,855"/><text class="lbl" x="814" y="727">W281</text>
  <polygon class="room" points="870,560 885,560 885,520 975,520 975,560 1070,560 1070,855 870,855"/><text class="lbl" x="968" y="698">W283</text>
  <polygon class="room" points="1070,560 1080,560 1080,520 1175,520 1175,560 1265,560 1265,820 1255,820 1255,855 1070,855"/><text class="lbl" x="1164" y="696">W285</text>
  <rect class="core" x="1305" y="572" width="65" height="80"/>
  <g class="icon" transform="translate(1318,593) scale(1.625)"><path d="m21 16-3-3h6zm0-8-3 3h6zm-12-8h-6c-1.654 0-3 1.346-3 3v21h9zm11 6.171v-3.171c0-1.654-1.346-3-3-3h-6v24h9v-6.171l-4-4v-3.657l4-4z" fill="#5f6368"/></g>

  <rect class="core" x="290" y="160" width="85" height="280"/>
  <g class="stair"><line x1="290" y1="169" x2="375" y2="169"/><line x1="290" y1="187" x2="375" y2="187"/><line x1="290" y1="205" x2="375" y2="205"/><line x1="290" y1="223" x2="375" y2="223"/><line x1="290" y1="241" x2="375" y2="241"/><line x1="290" y1="259" x2="375" y2="259"/><line x1="290" y1="277" x2="375" y2="277"/><line x1="290" y1="295" x2="375" y2="295"/><line x1="290" y1="313" x2="375" y2="313"/><line x1="290" y1="331" x2="375" y2="331"/><line x1="290" y1="349" x2="375" y2="349"/><line x1="290" y1="367" x2="375" y2="367"/><line x1="290" y1="385" x2="375" y2="385"/><line x1="290" y1="403" x2="375" y2="403"/><line x1="290" y1="421" x2="375" y2="421"/><line x1="290" y1="439" x2="375" y2="439"/></g>
  <rect class="core" x="1380" y="530" width="75" height="280"/>
  <g class="stair"><line x1="1380" y1="539" x2="1455" y2="539"/><line x1="1380" y1="557" x2="1455" y2="557"/><line x1="1380" y1="575" x2="1455" y2="575"/><line x1="1380" y1="593" x2="1455" y2="593"/><line x1="1380" y1="611" x2="1455" y2="611"/><line x1="1380" y1="629" x2="1455" y2="629"/><line x1="1380" y1="647" x2="1455" y2="647"/><line x1="1380" y1="665" x2="1455" y2="665"/><line x1="1380" y1="683" x2="1455" y2="683"/><line x1="1380" y1="701" x2="1455" y2="701"/><line x1="1380" y1="719" x2="1455" y2="719"/><line x1="1380" y1="737" x2="1455" y2="737"/><line x1="1380" y1="755" x2="1455" y2="755"/><line x1="1380" y1="773" x2="1455" y2="773"/><line x1="1380" y1="791" x2="1455" y2="791"/><line x1="1380" y1="809" x2="1455" y2="809"/></g>
  <polygon class="floor-edge" points="270,75 1380,75 1380,250 1955,250 1955,700 1465,700 1465,815 1380,815 1380,885 270,885 270,845 165,845 165,730 105,730 105,405 270,405"/>
  <line class="door" x1="270" y1="270" x2="270" y2="310"/><text class="exit" x="270" y="345">EXIT</text>
  <line class="door" x1="1465" y1="720" x2="1465" y2="760"/><text class="exit" x="1465" y="795">EXIT</text>
  <!-- Which way the building really faces; matches the compass on the posted evacuation map. -->
  <g class="compass" transform="translate(1789,75) rotate(11)">
    <circle r="80" fill="#ffffff" stroke="#1d1f23" stroke-width="3"/>
    <circle r="49" fill="none" stroke="#f0f0f3" stroke-width="2"/>
    <path d="M0,-38 L11,0 L-11,0 Z" fill="#8C0B42"/>
    <path d="M0,38 L11,0 L-11,0 Z" fill="#c7c7cc"/>
    <circle r="4.5" fill="#ffffff" stroke="#8a8690" stroke-width="2"/>
    <text class="compass-letter compass-north" x="0" y="-52">N</text>
    <text class="compass-letter" x="0" y="62">S</text>
    <text class="compass-letter" x="57" y="6">E</text>
    <text class="compass-letter" x="-57" y="6">W</text>
  </g>
</svg>
