<svg xmlns="http://www.w3.org/2000/svg" viewBox="0 0 1074 1630" font-family="-apple-system, 'SF Pro Text', 'Helvetica Neue', Arial, sans-serif">
  <!--
    Chemistry Building (bldg 187) - FLOOR 1
    Traced from the posted "Emergency Evacuation Plan" photo. Coordinates use the
    photo's own pixel positions, so any shape can be checked against the photo.
    One wall weight for outside walls, one for inside walls; nothing in between.
  -->
  <style>
    .floor { fill: #ffffff; stroke: #3a3d42; stroke-width: 6; stroke-linejoin: round; }
    .room  { fill: #eef1f4; stroke: #8f959c; stroke-width: 2; }
    .ours  { fill: #f5e3ea; stroke: #8f959c; stroke-width: 2; }
    .core  { fill: #dfe3e8; stroke: #8f959c; stroke-width: 2; }
    .void  { fill: #f7f7f8; stroke: #b5bac0; stroke-width: 2; stroke-dasharray: 10 8; }
    .dim   { fill: #8a8f96; text-anchor: middle; dominant-baseline: middle; }
    .stair { stroke: #8f959c; stroke-width: 2; }
    .hall  { fill: #d7dbe0; stroke: none; }
    .hall-lbl { fill: #6b7280; font-size: 18px; text-anchor: middle; dominant-baseline: middle; }
    .authwall { stroke: #7c3aed; stroke-width: 6; stroke-dasharray: 10 8; }
    .door  { stroke: #ffffff; stroke-width: 10; }
    .lbl   { fill: #2b2e33; font-size: 24px; text-anchor: middle; dominant-baseline: middle; }
    .lblS  { fill: #2b2e33; font-size: 19px; text-anchor: middle; dominant-baseline: middle; }
    .name  { fill: #1d1f23; font-size: 30px; font-weight: 700; text-anchor: middle; dominant-baseline: middle; }
    .exit  { fill: #1a7f37; font-size: 20px; font-weight: 700; text-anchor: middle; dominant-baseline: middle; }
    .compass-letter { font-size: 22px; font-weight: 600; fill: #8a8690; text-anchor: middle; }
    .compass-north  { fill: #8C0B42; }
    .floor-edge { fill:none; stroke:#3a3d42; stroke-width:6; stroke-linejoin:round; }
  </style>

  <!-- OUTSIDE WALLS -->
  <polygon class="floor" points="645,95 725,95 725,100 995,100 995,450 1040,450 1040,540 1000,540 1000,975 1045,975 1045,1390 800,1390 800,1445 655,1445 655,1330 580,1330 580,1445 270,1445 270,1390 165,1390 165,1265 80,1265 80,1155 90,1155 90,925 80,925 80,885 85,885 85,430 80,430 80,565 85,565 85,560 145,560 145,540 85,540 85,450 145,450 145,295 640,295 640,100 645,100"/>

  <!-- HALLWAYS -->
  <rect class="hall" x="270" y="330" width="65" height="120"/>
  <rect class="hall" x="725" y="360" width="75" height="905"/>
  <rect class="hall" x="270" y="560" width="65" height="705"/>
  <rect class="hall" x="335" y="710" width="390" height="70"/>
  <rect class="hall" x="995" y="975" width="45" height="415"/>
  <rect class="hall" x="640" y="150" width="160" height="30"/>
  <rect class="hall" x="640" y="180" width="15" height="115"/>
  <rect class="hall" x="945" y="180" width="50" height="115"/>
  <rect class="hall" x="655" y="240" width="290" height="55"/>
  <rect class="hall" x="655" y="295" width="145" height="65"/>
  <rect class="hall" x="660" y="300" width="25" height="80"/>
  <rect class="hall" x="85" y="710" width="80" height="215"/>
  <rect class="hall" x="220" y="735" width="50" height="45"/>
  <rect class="hall" x="165" y="755" width="55" height="25"/>
  <rect class="hall" x="220" y="780" width="50" height="260"/>
  <rect class="hall" x="410" y="1040" width="130" height="115"/>
  <rect class="hall" x="540" y="1040" width="185" height="40"/>
  <rect class="hall" x="540" y="1080" width="115" height="75"/>
  <rect class="hall" x="335" y="1080" width="75" height="30"/>
  <rect class="hall" x="410" y="1155" width="30" height="175"/>
  <rect class="hall" x="640" y="1155" width="15" height="175"/>
  <rect class="hall" x="655" y="1230" width="70" height="100"/>
  <rect class="hall" x="270" y="1265" width="35" height="180"/>
  <rect class="hall" x="725" y="1265" width="75" height="180"/>
  <rect class="hall" x="270" y="450" width="65" height="110"/>
  <text class="hall-lbl" transform="rotate(-90 763 843)" x="763" y="843">Hallway</text>
  <text class="hall-lbl" transform="rotate(-90 303 798)" x="303" y="798">Hallway</text>
  <text class="hall-lbl" transform="rotate(-90 763 483)" x="763" y="483">Hallway</text>
  <text class="hall-lbl" transform="rotate(-90 1018 1183)" x="1018" y="1183">Hallway</text>

  <!-- ROOMS -->
  <polygon class="room" points="580,295 655,295 655,450 580,450"/><text class="lbl" x="618" y="373">104B</text>
  <polygon class="room" points="540,360 580,360 580,450 540,450"/><text class="lblS" x="560" y="405">104D</text>
  <polygon class="room" points="655,380 690,380 690,450 655,450"/><text class="lblS" x="673" y="415">104F</text>
  <polygon class="room" points="905,295 995,295 995,450 905,450"/>
  <polygon class="room" points="995,450 1040,450 1040,540 995,540"/>
  <polygon class="room" points="120,450 145,450 145,535 90,535 85,540 85,510 120,510"/><text class="lblS" x="124" y="501">103J</text>
  <polygon class="room" points="165,735 200,735 220,755 165,755"/>
  <polygon class="room" points="335,780 390,780 390,840 410,840 410,925 335,925"/><text class="lbl" x="369" y="858">112B</text>
  <polygon class="room" points="410,1265 410,1330 365,1330 365,1265"/><text class="lblS" x="388" y="1298">117</text>
  <polygon class="room" points="270,1265 270,1390 165,1390 165,1265"/><text class="lbl" x="218" y="1328">100</text>
  <rect class="room" x="800" y="100" width="80" height="80"/><text class="lbl" x="840" y="140">126</text>
  <rect class="room" x="880" y="100" width="115" height="80"/><text class="lbl" x="938" y="140">127</text>
  <rect class="room" x="655" y="180" width="290" height="60"/>
  <rect class="room" x="145" y="295" width="20" height="155"/>
  <rect class="room" x="165" y="295" width="105" height="155"/><text class="lbl" x="218" y="373">103F</text>
  <rect class="room" x="335" y="295" width="105" height="155"/><text class="lbl" x="388" y="373">104A</text>
  <rect class="room" x="440" y="295" width="100" height="155"/><text class="lbl" x="490" y="373">104G</text>
  <rect class="room" x="800" y="295" width="105" height="155"/><text class="lbl" x="853" y="373">113</text>
  <rect class="room" x="145" y="450" width="125" height="110"/><text class="lbl" x="208" y="505">103</text>
  <rect class="room" x="335" y="450" width="205" height="260"/><text class="lbl" x="438" y="580">105</text>
  <rect class="room" x="540" y="450" width="185" height="260"/><text class="lbl" x="633" y="580">106</text>
  <rect class="room" x="800" y="450" width="195" height="260"/><text class="lbl" x="898" y="580">107</text>
  <rect class="room" x="85" y="560" width="185" height="150"/><text class="lbl" x="178" y="635">103A</text>
  <rect class="room" x="800" y="710" width="195" height="265"/><text class="lbl" x="898" y="843">108</text>
  <rect class="room" x="165" y="780" width="55" height="145"/><text class="lblS" x="193" y="853">102</text>
  <rect class="room" x="410" y="780" width="130" height="145"/><text class="lbl" x="475" y="853">112A</text>
  <rect class="room" x="540" y="780" width="115" height="145"/><text class="lbl" x="598" y="853">112</text>
  <rect class="room" x="655" y="780" width="70" height="145"/><text class="lbl" x="690" y="853">112F</text>
  <rect class="room" x="335" y="925" width="205" height="115"/><text class="lbl" x="438" y="983">112C</text>
  <rect class="room" x="540" y="925" width="185" height="115"/>
  <rect class="room" x="800" y="975" width="195" height="65"/><text class="lblS" x="898" y="1008">109A</text>
  <rect class="room" x="90" y="1040" width="180" height="225"/><text class="lbl" x="180" y="1153">101</text>
  <rect class="room" x="800" y="1040" width="195" height="225"/><text class="lbl" x="898" y="1153">109</text>
  <rect class="room" x="655" y="1080" width="70" height="75"/><text class="lbl" x="690" y="1118">111A</text>
  <rect class="room" x="335" y="1110" width="75" height="120"/><text class="lbl" x="373" y="1170">R118</text>
  <rect class="room" x="440" y="1155" width="200" height="175"/><text class="lbl" x="540" y="1243">111</text>
  <rect class="room" x="655" y="1155" width="70" height="75"/>
  <rect class="room" x="800" y="1265" width="195" height="125"/><text class="lbl" x="898" y="1328">110</text>

  <rect class="core" x="645" y="95" width="80" height="55"/>
  <g class="stair"><line x1="645" y1="104" x2="725" y2="104"/><line x1="645" y1="122" x2="725" y2="122"/><line x1="645" y1="140" x2="725" y2="140"/></g>
  <rect class="core" x="335" y="1040" width="75" height="40"/>
  <g class="stair"><line x1="344" y1="1040" x2="344" y2="1080"/><line x1="362" y1="1040" x2="362" y2="1080"/><line x1="380" y1="1040" x2="380" y2="1080"/><line x1="398" y1="1040" x2="398" y2="1080"/></g>
  <rect class="core" x="305" y="1265" width="30" height="65"/>
  <g class="stair"><line x1="305" y1="1274" x2="335" y2="1274"/><line x1="305" y1="1292" x2="335" y2="1292"/><line x1="305" y1="1310" x2="335" y2="1310"/><line x1="305" y1="1328" x2="335" y2="1328"/></g>
  <rect class="core" x="365" y="1330" width="45" height="60"/>
  <g class="stair"><line x1="365" y1="1339" x2="410" y2="1339"/><line x1="365" y1="1357" x2="410" y2="1357"/><line x1="365" y1="1375" x2="410" y2="1375"/></g>
  <rect class="core" x="655" y="1330" width="70" height="60"/>
  <g class="stair"><line x1="655" y1="1339" x2="725" y2="1339"/><line x1="655" y1="1357" x2="725" y2="1357"/><line x1="655" y1="1375" x2="725" y2="1375"/></g>
  <polygon class="floor-edge" points="645,95 725,95 725,100 995,100 995,450 1040,450 1040,540 1000,540 1000,975 1045,975 1045,1390 800,1390 800,1445 655,1445 655,1330 580,1330 580,1445 270,1445 270,1390 165,1390 165,1265 80,1265 80,1155 90,1155 90,925 80,925 80,885 85,885 85,430 80,430 80,565 85,565 85,560 145,560 145,540 85,540 85,450 145,450 145,295 640,295 640,100 645,100"/>
  <line class="door" x1="995" y1="242" x2="995" y2="278"/><text class="exit" x="940" y="260">EXIT</text>
  <line class="door" x1="640" y1="280" x2="640" y2="244"/><text class="exit" x="695" y="262">EXIT</text>
  <line class="door" x1="85" y1="750" x2="85" y2="714"/><text class="exit" x="140" y="732">EXIT</text>
  <line class="door" x1="90" y1="1028" x2="90" y2="992"/><text class="exit" x="145" y="1010">EXIT</text>
  <line class="door" x1="580" y1="1409" x2="580" y2="1445"/><text class="exit" x="525" y="1427">EXIT</text>
  <line class="door" x1="484" y1="1445" x2="448" y2="1445"/><text class="exit" x="466" y="1390">EXIT</text>
  <!-- Which way the building really faces; matches the compass on the posted evacuation map. -->
  <g class="compass" transform="translate(902,1534) rotate(12)">
    <circle r="80" fill="#ffffff" stroke="#1d1f23" stroke-width="3"/>
    <circle r="49" fill="none" stroke="#f0f0f3" stroke-width="2"/>
    <path d="M0,-38 L11,0 L-11,0 Z" fill="#8C0B42"/>
    <path d="M0,38 L11,0 L-11,0 Z" fill="#c7c7cc"/>
    <circle r="4.5" fill="#ffffff" stroke="#8a8690" stroke-width="2"/>
    <text class="compass-letter compass-north" x="0" y="-52">N</text>
    <text class="compass-letter" x="0" y="62">S</text>
    <text class="compass-letter" x="57" y="6">E</text>
    <text class="compass-letter" x="-57" y="6">W</text>
  </g>
</svg>
