<svg xmlns="http://www.w3.org/2000/svg" viewBox="0 0 2494 1397" font-family="-apple-system, 'SF Pro Text', 'Helvetica Neue', Arial, sans-serif">
  <!--
    Gardiner Hall (bldg 188) - FLOOR 2
    Traced from the posted "Emergency Evacuation Plan" photo. Coordinates use the
    photo's own pixel positions, so any shape can be checked against the photo.
    One wall weight for outside walls, one for inside walls; nothing in between.
  -->
  <style>
    .floor { fill: #ffffff; stroke: #3a3d42; stroke-width: 6; stroke-linejoin: round; }
    .room  { fill: #eef1f4; stroke: #8f959c; stroke-width: 2; }
    .ours  { fill: #f5e3ea; stroke: #8f959c; stroke-width: 2; }
    .core  { fill: #dfe3e8; stroke: #8f959c; stroke-width: 2; }
    .void  { fill: #f7f7f8; stroke: #b5bac0; stroke-width: 2; stroke-dasharray: 10 8; }
    .dim   { fill: #8a8f96; text-anchor: middle; dominant-baseline: middle; }
    .stair { stroke: #8f959c; stroke-width: 2; }
    .hall  { fill: #d7dbe0; stroke: none; }
    .hall-lbl { fill: #6b7280; font-size: 18px; text-anchor: middle; dominant-baseline: middle; }
    .authwall { stroke: #7c3aed; stroke-width: 6; stroke-dasharray: 10 8; }
    .door  { stroke: #ffffff; stroke-width: 10; }
    .lbl   { fill: #2b2e33; font-size: 24px; text-anchor: middle; dominant-baseline: middle; }
    .lblS  { fill: #2b2e33; font-size: 19px; text-anchor: middle; dominant-baseline: middle; }
    .name  { fill: #1d1f23; font-size: 30px; font-weight: 700; text-anchor: middle; dominant-baseline: middle; }
    .exit  { fill: #1a7f37; font-size: 20px; font-weight: 700; text-anchor: middle; dominant-baseline: middle; }
    .compass-letter { font-size: 22px; font-weight: 600; fill: #8a8690; text-anchor: middle; }
    .compass-north  { fill: #8C0B42; }
    .floor-edge { fill:none; stroke:#3a3d42; stroke-width:6; stroke-linejoin:round; }
  </style>

  <!-- OUTSIDE WALLS -->
  <polygon class="floor" points="535,105 935,105 935,885 1145,885 1145,755 1210,755 1210,760 1265,760 1265,755 2370,755 2370,760 2385,760 2385,1325 2240,1325 2240,1310 2195,1310 2195,1295 2185,1295 2185,1210 930,1210 930,1300 210,1300 210,970 155,970 155,935 0,935 0,820 155,820 155,750 30,750 30,645 155,645 155,560 0,560 0,500 155,500 155,430 180,430 180,425 210,425 210,350 215,350 215,110 535,110"/>

  <!-- HALLWAYS -->
  <rect class="hall" x="325" y="385" width="60" height="330"/>
  <rect class="hall" x="865" y="885" width="70" height="175"/>
  <rect class="hall" x="1145" y="970" width="120" height="155"/>
  <rect class="hall" x="1265" y="970" width="295" height="90"/>
  <rect class="hall" x="2185" y="1210" width="200" height="85"/>
  <rect class="hall" x="745" y="425" width="55" height="635"/>
  <rect class="hall" x="2325" y="970" width="60" height="180"/>
  <rect class="hall" x="1140" y="975" width="30" height="235"/>
  <rect class="hall" x="535" y="970" width="210" height="90"/>
  <rect class="hall" x="935" y="970" width="210" height="90"/>
  <rect class="hall" x="800" y="1020" width="65" height="40"/>
  <rect class="hall" x="2275" y="1060" width="50" height="90"/>
  <rect class="hall" x="535" y="1060" width="50" height="240"/>
  <rect class="hall" x="2275" y="1150" width="50" height="60"/>
  <rect class="hall" x="2370" y="1150" width="15" height="60"/>
  <rect class="hall" x="1240" y="983" width="25" height="70"/>
  <rect class="hall" x="1560" y="970" width="105" height="90"/>
  <rect class="hall" x="1665" y="970" width="210" height="90"/>
  <rect class="hall" x="2185" y="970" width="140" height="90"/>
  <rect class="hall" x="1985" y="970" width="200" height="90"/>
  <rect class="hall" x="1875" y="970" width="110" height="90"/>
  <text class="hall-lbl" transform="rotate(-90 373 548)" x="373" y="548">Hallway</text>
  <text class="hall-lbl" x="1623" y="1018">Hallway</text>
  <text class="hall-lbl" x="2063" y="1013">Hallway</text>
  <text class="hall-lbl" x="1188" y="1018">Hallway</text>

  <!-- ROOMS -->
  <polygon class="room" points="620,110 620,350 535,350 535,110"/><text class="lbl" x="578" y="230">205</text>
  <polygon class="room" points="745,425 745,645 690,645 690,685 660,685 660,500 690,425"/><text class="lbl" x="703" y="548">231</text>
  <polygon class="room" points="180,500 325,500 325,595 210,595 210,560 180,560"/><text class="lbl" x="257" y="545">201</text>
  <polygon class="room" points="1145,755 1210,755 1210,970 1145,970"/><text class="lblS" x="1178" y="863">266</text>
  <polygon class="room" points="325,820 325,970 285,935 285,970 180,970 180,820"/><text class="lbl" x="251" y="893">225</text>
  <polygon class="room" points="1315,1060 1315,1085 1265,1085 1265,1105 1315,1105 1315,1125 1265,1125 1265,1060"/>
  <polygon class="room" points="1140,1060 1140,1170 1080,1170 1080,1150 1035,1150 1035,1060"/><text class="lbl" x="1090" y="1111">251</text>
  <polygon class="room" points="1035,1060 1035,1170 1005,1170 1005,1150 980,1150 980,1170 930,1170 930,1060"/><text class="lbl" x="982" y="1113">250</text>
  <polygon class="room" points="210,1060 430,1060 430,1210 325,1210 325,1150 210,1150"/><text class="lbl" x="334" y="1123">221</text>
  <polygon class="room" points="1560,1060 1560,1210 1455,1210 1455,1060"/><text class="lbl" x="1508" y="1135">285</text>
  <polygon class="room" points="1665,1060 1665,1210 1560,1210 1560,1060"/><text class="lbl" x="1613" y="1135">256A</text>
  <polygon class="room" points="1985,1060 1985,1210 1875,1210 1875,1060"/><text class="lbl" x="1930" y="1135">258</text>
  <polygon class="room" points="1315,1060 1355,1060 1355,1125 1265,1125 1265,1170 1355,1170 1355,1210 1265,1210 1265,1125 1315,1125"/><text class="lbl" x="1320" y="1149">R253</text>
  <polygon class="room" points="325,1210 430,1210 430,1295 325,1295"/><text class="lbl" x="378" y="1253">222</text>
  <polygon class="room" points="800,350 800,970 865,970 865,1020 800,1020 800,385 585,385 535,425 535,385 360,385 360,685 210,685 210,645 325,645 325,350"/>
  <polygon class="room" points="100,500 100,560 0,560 0,500"/>
  <polygon class="room" points="30,645 100,645 100,750 30,750"/>
  <polygon class="room" points="0,820 100,820 100,935 30,935 30,885 0,885"/>
  <rect class="room" x="620" y="105" width="315" height="245"/><text class="lbl" x="778" y="228">206</text>
  <rect class="room" x="215" y="110" width="320" height="240"/><text class="lbl" x="375" y="230">204</text>
  <rect class="room" x="210" y="350" width="115" height="80"/><text class="lbl" x="268" y="390">203</text>
  <rect class="room" x="800" y="350" width="135" height="150"/><text class="lbl" x="868" y="425">207</text>
  <rect class="room" x="180" y="425" width="145" height="75"/><text class="lbl" x="253" y="463">202</text>
  <rect class="room" x="385" y="425" width="275" height="260"/><text class="lbl" x="523" y="555">229</text>
  <rect class="room" x="800" y="500" width="130" height="145"/><text class="lbl" x="865" y="573">209</text>
  <rect class="room" x="385" y="685" width="360" height="285"/><text class="lbl" x="565" y="828">230</text>
  <rect class="room" x="325" y="715" width="210" height="495"/><text class="lbl" x="430" y="963">218</text>
  <rect class="room" x="1265" y="755" width="295" height="215"/><text class="lbl" x="1413" y="863">265</text>
  <rect class="room" x="1560" y="755" width="315" height="215"/><text class="lbl" x="1718" y="863">264</text>
  <rect class="room" x="1875" y="755" width="310" height="215"/><text class="lbl" x="2030" y="863">261</text>
  <rect class="room" x="2185" y="755" width="185" height="215"/><text class="lbl" x="2278" y="863">260</text>
  <rect class="room" x="930" y="885" width="105" height="85"/><text class="lbl" x="983" y="928">268</text>
  <rect class="room" x="1035" y="885" width="110" height="85"/><text class="lbl" x="1090" y="928">267</text>
  <rect class="room" x="210" y="970" width="115" height="90"/><text class="lbl" x="268" y="1015">224</text>
  <rect class="room" x="585" y="1060" width="160" height="235"/><text class="lbl" x="665" y="1178">218A</text>
  <rect class="room" x="745" y="1060" width="185" height="235"/><text class="lbl" x="838" y="1178">216</text>
  <rect class="room" x="1355" y="1060" width="100" height="150"/><text class="lbl" x="1405" y="1135">254</text>
  <rect class="room" x="1665" y="1060" width="105" height="150"/><text class="lbl" x="1718" y="1135">256</text>
  <rect class="room" x="1770" y="1060" width="105" height="150"/><text class="lbl" x="1823" y="1135">258A</text>
  <rect class="room" x="1985" y="1060" width="100" height="150"/>
  <rect class="room" x="2085" y="1060" width="100" height="150"/><text class="lbl" x="2135" y="1135">259A</text>
  <rect class="room" x="2185" y="1060" width="90" height="150"/><text class="lbl" x="2230" y="1135">259B</text>
  <rect class="room" x="210" y="1150" width="115" height="145"/><text class="lbl" x="268" y="1223">223</text>

  <rect class="core" x="1210" y="885" width="55" height="85"/>
  <g class="stair"><line x1="1219" y1="885" x2="1219" y2="970"/><line x1="1237" y1="885" x2="1237" y2="970"/><line x1="1255" y1="885" x2="1255" y2="970"/></g>
  <rect class="core" x="2325" y="1150" width="45" height="60"/>
  <g class="stair"><line x1="2334" y1="1150" x2="2334" y2="1210"/><line x1="2352" y1="1150" x2="2352" y2="1210"/></g>
  <polygon class="floor-edge" points="535,105 935,105 935,885 1145,885 1145,755 1210,755 1210,760 1265,760 1265,755 2370,755 2370,760 2385,760 2385,1325 2240,1325 2240,1310 2195,1310 2195,1295 2185,1295 2185,1210 930,1210 930,1300 210,1300 210,970 155,970 155,935 0,935 0,820 155,820 155,750 30,750 30,645 155,645 155,560 0,560 0,500 155,500 155,430 180,430 180,425 210,425 210,350 215,350 215,110 535,110"/>
  <line class="door" x1="155" y1="786" x2="155" y2="750"/><text class="exit" x="210" y="768">EXIT</text>
  <line class="door" x1="935" y1="849" x2="935" y2="885"/><text class="exit" x="880" y="867">EXIT</text>
  <line class="door" x1="2385" y1="1082" x2="2385" y2="1118"/><text class="exit" x="2330" y="1100">EXIT</text>
  <line class="door" x1="1234" y1="1210" x2="1198" y2="1210"/><text class="exit" x="1216" y="1155">EXIT</text>
  <!-- Which way the building really faces; matches the compass on the posted evacuation map. -->
  <g class="compass" transform="translate(2395,1405) rotate(102)">
    <circle r="80" fill="#ffffff" stroke="#1d1f23" stroke-width="3"/>
    <circle r="49" fill="none" stroke="#f0f0f3" stroke-width="2"/>
    <path d="M0,-38 L11,0 L-11,0 Z" fill="#8C0B42"/>
    <path d="M0,38 L11,0 L-11,0 Z" fill="#c7c7cc"/>
    <circle r="4.5" fill="#ffffff" stroke="#8a8690" stroke-width="2"/>
    <text class="compass-letter compass-north" x="0" y="-52">N</text>
    <text class="compass-letter" x="0" y="62">S</text>
    <text class="compass-letter" x="57" y="6">E</text>
    <text class="compass-letter" x="-57" y="6">W</text>
  </g>
</svg>
